<?xml version="1.0" encoding="utf-8"?>
<!-- Generator: Adobe Illustrator 26.0.3, SVG Export Plug-In . SVG Version: 6.00 Build 0)  -->
<svg version="1.1" id="レイヤー_1" xmlns="http://www.w3.org/2000/svg" xmlns:xlink="http://www.w3.org/1999/xlink" x="0px"
	 y="0px" viewBox="0 0 151.33 30" style="enable-background:new 0 0 151.33 30;" xml:space="preserve">
<style type="text/css">
	.st0{fill:#003774;}
	.st1{fill:#C4D6EC;}
	.st2{fill:#6C9BD2;}
	.st3{fill:#002E5D;}
</style>
<g>
	<g>
		<path class="st0" d="M31.68,22.92c0.63-3.44,1.14-7.24,1.56-11.38l-4.32,0.12l0.15-1.18c0.08-0.63,0.16-1.33,0.23-2.08
			c1.92,0.01,4.14,0.02,6.69,0.02l2.5-0.01h2.43l1.32-0.01l-0.15,1.05c-0.07,0.55-0.13,1.02-0.17,1.38
			c-0.04,0.37-0.07,0.64-0.08,0.83c-1.44-0.08-2.63-0.12-3.56-0.12h-0.71c-0.2,1.25-0.38,2.41-0.52,3.47c-0.2,1.52-0.39,3-0.54,4.44
			c-0.16,1.43-0.28,2.59-0.35,3.48c-1.1-0.01-1.81-0.02-2.14-0.02C33.72,22.9,32.94,22.91,31.68,22.92z"/>
		<path class="st0" d="M41.73,22.92c0.32-1.82,0.57-3.36,0.76-4.6c0.18-1.23,0.4-2.87,0.64-4.92c0.25-2.05,0.4-3.41,0.45-4.07
			l0.07-0.94c1.58,0.01,3.51,0.02,5.76,0.02c2.08,0,3.92-0.01,5.51-0.02l-0.05,0.35c-0.02,0.08-0.06,0.39-0.13,0.92l-0.16,1.16
			c-0.04,0.25-0.06,0.5-0.08,0.75c-1.3-0.05-2.39-0.08-3.27-0.08c-0.97,0-1.63,0-1.96,0.01c-0.34,0.01-0.88,0.02-1.6,0.05
			l-0.33,2.44c0.79,0.02,1.72,0.03,2.77,0.03c0.38,0,1.38-0.03,3.01-0.08c-0.14,0.91-0.29,2-0.46,3.25
			c-1.16-0.02-2.06-0.03-2.68-0.03c-0.93,0-1.97,0.03-3.13,0.08l-0.34,2.59h1.16c0.34,0,1.05-0.01,2.13-0.03l2.09-0.05
			c0.31-0.01,0.83-0.03,1.56-0.08c-0.17,1.05-0.33,2.13-0.47,3.25c-1.64-0.01-3.44-0.02-5.4-0.02l-4.45,0.01L41.73,22.92z"/>
		<path class="st0" d="M67.64,19.38c-0.12,0.42-0.26,1-0.44,1.74c-0.18,0.75-0.3,1.33-0.38,1.74c-1.46,0.23-2.76,0.34-3.89,0.34
			c-1.09,0-2.1-0.14-3.01-0.43c-0.92-0.29-1.74-0.76-2.47-1.41c-0.73-0.66-1.23-1.43-1.49-2.32c-0.26-0.89-0.35-1.88-0.26-2.98
			c0.11-1.28,0.43-2.43,0.97-3.46c0.55-1.03,1.27-1.88,2.18-2.57c0.91-0.68,1.88-1.17,2.93-1.47c1.04-0.3,2.11-0.44,3.19-0.44
			c1,0,2.22,0.14,3.67,0.41l-0.05,0.9c-0.02,0.39-0.04,0.81-0.05,1.28l-0.03,1.21c-0.78-0.2-1.4-0.34-1.89-0.41
			c-0.48-0.07-0.93-0.1-1.35-0.1c-0.91,0-1.75,0.19-2.51,0.57c-0.76,0.39-1.38,0.94-1.86,1.67c-0.48,0.73-0.76,1.54-0.83,2.43
			c-0.07,0.81,0.05,1.5,0.35,2.08c0.31,0.57,0.74,1.02,1.31,1.34c0.57,0.32,1.29,0.48,2.17,0.48c0.48,0,1-0.04,1.57-0.12
			C66.05,19.77,66.77,19.61,67.64,19.38z"/>
		<path class="st0" d="M69.31,22.92l0.88-5.81l0.54-4.24l0.21-1.89c0.06-0.54,0.11-1.07,0.15-1.57l0.07-1.02
			c1.05,0.01,1.85,0.02,2.37,0.02c0.42,0,1.13-0.01,2.15-0.02c-0.33,2.03-0.58,3.83-0.76,5.4h5.5c0.08-0.59,0.18-1.37,0.29-2.36
			c0.12-0.99,0.19-1.67,0.22-2.03c0.02-0.2,0.04-0.53,0.06-1l2.39,0.02c0.25,0,0.96-0.01,2.12-0.02c-0.54,3.65-0.92,6.36-1.13,8.13
			c-0.22,1.78-0.43,3.91-0.64,6.39l-2.2-0.02c-0.33,0-1.12,0.01-2.37,0.02c0.31-1.69,0.59-3.65,0.84-5.89h-5.52l-0.66,5.89
			l-2.34-0.02C71.18,22.9,70.45,22.91,69.31,22.92z"/>
		<path class="st0" d="M89.28,22.92c0.62-3.44,1.14-7.24,1.56-11.38l-4.31,0.12l0.15-1.18c0.08-0.63,0.15-1.33,0.23-2.08
			c1.91,0.01,4.14,0.02,6.69,0.02l2.5-0.01h2.43l1.31-0.01l-0.15,1.05c-0.07,0.55-0.13,1.02-0.17,1.38
			c-0.04,0.37-0.07,0.64-0.08,0.83c-1.44-0.08-2.62-0.12-3.56-0.12h-0.71c-0.21,1.25-0.38,2.41-0.53,3.47
			c-0.2,1.52-0.38,3-0.54,4.44c-0.16,1.43-0.28,2.59-0.35,3.48c-1.11-0.01-1.82-0.02-2.14-0.02C91.32,22.9,90.55,22.91,89.28,22.92z
			"/>
		<path class="st0" d="M108.92,8.12c1.08,0,2.1,0.15,3.07,0.46c0.98,0.31,1.8,0.79,2.5,1.46c0.69,0.67,1.19,1.44,1.48,2.32
			c0.3,0.87,0.4,1.87,0.31,3.01c-0.1,1.19-0.4,2.29-0.89,3.28c-0.49,0.99-1.15,1.85-1.97,2.54c-0.83,0.69-1.79,1.2-2.88,1.53
			c-1.09,0.32-2.21,0.48-3.36,0.48c-1.14,0-2.21-0.16-3.23-0.47c-1.02-0.32-1.88-0.83-2.6-1.53c-0.71-0.71-1.2-1.49-1.45-2.35
			c-0.25-0.87-0.33-1.83-0.25-2.89c0.13-1.55,0.59-2.92,1.37-4.09c0.78-1.17,1.87-2.09,3.27-2.75
			C105.7,8.45,107.24,8.12,108.92,8.12z M108.48,11.33c-0.78,0-1.49,0.2-2.16,0.6c-0.66,0.4-1.18,0.95-1.58,1.67
			c-0.4,0.71-0.63,1.47-0.7,2.29c-0.06,0.75,0.03,1.44,0.29,2.06c0.26,0.62,0.68,1.11,1.28,1.46c0.6,0.35,1.25,0.52,1.95,0.52
			c0.74,0,1.45-0.19,2.11-0.59c0.66-0.4,1.18-0.95,1.56-1.66c0.39-0.71,0.61-1.46,0.67-2.24c0.06-0.76-0.03-1.46-0.28-2.1
			c-0.25-0.64-0.65-1.14-1.21-1.5C109.86,11.5,109.21,11.33,108.48,11.33z"/>
		<path class="st0" d="M117.29,22.92l0.39-2.23l1.02-7.58l0.37-3.06l0.14-1.66c1.04,0.01,1.96,0.02,2.76,0.02
			c0.57,0,1.38-0.01,2.42-0.02l3.65,8.26l0.5,1.22c0.17-1.19,0.39-2.87,0.64-5.02c0.26-2.15,0.42-3.64,0.49-4.46
			c0.83,0.01,1.49,0.02,1.98,0.02c0.23,0,0.9-0.01,1.99-0.02l-0.51,3.17l-1.19,8.81l-0.27,2.54c-0.87-0.01-1.69-0.02-2.45-0.02
			c-0.64,0-1.51,0.01-2.63,0.02c-0.3-0.69-0.51-1.2-0.65-1.51l-1.45-3.03c-0.47-1-0.92-1.95-1.31-2.86
			c-0.27-0.58-0.53-1.21-0.8-1.89l-0.64,5.04l-0.46,4.25c-0.83-0.01-1.47-0.02-1.91-0.02C119,22.9,118.31,22.91,117.29,22.92z"/>
		<path class="st0" d="M134.26,22.92c0.32-1.82,0.57-3.36,0.75-4.6c0.18-1.23,0.39-2.87,0.64-4.92c0.25-2.05,0.41-3.41,0.46-4.07
			l0.07-0.94c1.59,0.01,3.51,0.02,5.77,0.02c2.07,0,3.91-0.01,5.5-0.02l-0.05,0.35c-0.02,0.08-0.06,0.39-0.13,0.92l-0.16,1.16
			c-0.03,0.25-0.06,0.5-0.08,0.75c-1.29-0.05-2.39-0.08-3.27-0.08c-0.97,0-1.62,0-1.97,0.01c-0.34,0.01-0.87,0.02-1.59,0.05
			l-0.33,2.44c0.79,0.02,1.72,0.03,2.78,0.03c0.38,0,1.38-0.03,3.02-0.08c-0.15,0.91-0.3,2-0.46,3.25
			c-1.17-0.02-2.06-0.03-2.68-0.03c-0.93,0-1.97,0.03-3.12,0.08l-0.34,2.59h1.16c0.34,0,1.05-0.01,2.13-0.03l2.1-0.05
			c0.31-0.01,0.83-0.03,1.56-0.08c-0.17,1.05-0.32,2.13-0.48,3.25c-1.64-0.01-3.44-0.02-5.41-0.02l-4.44,0.01L134.26,22.92z"/>
	</g>
	<g>
		<polygon class="st1" points="18.8,6.44 16.06,5.15 16.04,5.16 12.09,3.34 10.47,4.08 8.13,5.17 11.73,6.97 3.89,10.99 7.85,13.32 
			15.73,8.98 20.06,11.16 24,8.84 		"/>
		<polygon class="st2" points="8.75,18.39 8.78,22.86 12.11,25.15 12.12,25.14 12.12,20.5 12.09,20.52 		"/>
		<polygon class="st2" points="7.84,13.32 7.85,13.32 3.89,10.99 3.88,11 4.08,23.89 4.73,24.36 7.94,26.66 		"/>
		<polygon class="st3" points="23.9,13.08 12.12,20.5 12.12,25.14 16.39,22.25 16.36,26.62 20.21,23.85 20.28,19.61 23.8,17.21 		
			"/>
	</g>
</g>
</svg>
